<?xml version="1.0" standalone="no"?>
<!DOCTYPE svg PUBLIC "-//W3C//DTD SVG 20010904//EN" "http://www.w3.org/TR/2001/REC-SVG-20010904/DTD/svg10.dtd">
<!-- Created using Krita: https://krita.org -->
<svg xmlns="http://www.w3.org/2000/svg" 
    xmlns:xlink="http://www.w3.org/1999/xlink"
    xmlns:krita="http://krita.org/namespaces/svg/krita"
    xmlns:sodipodi="http://sodipodi.sourceforge.net/DTD/sodipodi-0.dtd"
    width="368.64pt"
    height="368.64pt"
    viewBox="0 0 368.64 368.64">
<defs/>
<rect id="shape0" transform="translate(123.12, 249.12)" fill="none" stroke="#003049" stroke-width="2.16" stroke-linecap="square" stroke-linejoin="bevel" width="123.84" height="40.32"/><path id="shape1" transform="translate(86.0407532447107, 186.082220774803)" fill="none" stroke="#003049" stroke-width="2.16" stroke-linecap="square" stroke-linejoin="miter" stroke-miterlimit="2" d="M49.6389 62.8759L0 0" sodipodi:nodetypes="cc"/><path id="shape2" transform="translate(86.0407532447107, 56.0028571415277)" fill="none" stroke="#003049" stroke-width="2.16" stroke-linecap="square" stroke-linejoin="miter" stroke-miterlimit="2" d="M0 130.079L99.0232 0" sodipodi:nodetypes="cc"/><path id="shape3" transform="translate(185.063987008594, 56.0028571415277)" fill="none" stroke="#003049" stroke-width="2.16" stroke-linecap="square" stroke-linejoin="miter" stroke-miterlimit="2" d="M0 0L99.7869 129.316" sodipodi:nodetypes="cc"/><path id="shape4" transform="translate(236.230233760626, 185.318545450146)" fill="none" stroke="#003049" stroke-width="2.16" stroke-linecap="square" stroke-linejoin="miter" stroke-miterlimit="2" d="M48.6207 0L0 62.6214" sodipodi:nodetypes="cc"/><path id="shape5" transform="translate(185.318545450146, 291.214857135944)" fill="none" stroke="#003049" stroke-width="2.16" stroke-linecap="square" stroke-linejoin="miter" stroke-miterlimit="2" d="M18.5828 0L0 23.6739" sodipodi:nodetypes="cc"/><path id="shape6" transform="translate(164.953870125954, 290.705740252839)" fill="none" stroke="#003049" stroke-width="2.16" stroke-linecap="square" stroke-linejoin="miter" stroke-miterlimit="2" d="M20.3647 24.1831L0 0" sodipodi:nodetypes="cc"/><path id="shape7" transform="translate(93.4229480497303, 185.827662333251)" fill="none" stroke="#003049" stroke-width="2.16" stroke-linecap="square" stroke-linejoin="miter" stroke-miterlimit="2" d="M0 0L48.1115 62.3668" sodipodi:nodetypes="cc"/><path id="shape8" transform="translate(228.084363630949, 185.063987008594)" fill="none" stroke="#003049" stroke-width="2.16" stroke-linecap="square" stroke-linejoin="miter" stroke-miterlimit="2" d="M0 63.1305L49.1298 0" sodipodi:nodetypes="cc"/><path id="shape9" transform="translate(185.318545450146, 65.9306363620713)" fill="none" stroke="#003049" stroke-width="2.16" stroke-linecap="square" stroke-linejoin="miter" stroke-miterlimit="2" d="M91.8956 119.133L0 0" sodipodi:nodetypes="cc"/><path id="shape10" transform="translate(93.4229480497303, 65.9306363620713)" fill="none" stroke="#003049" stroke-width="2.16" stroke-linecap="square" stroke-linejoin="miter" stroke-miterlimit="2" d="M91.8956 0L0 119.133" sodipodi:nodetypes="cc"/><path id="shape11" transform="translate(172.590623372526, 290.196623369734)" fill="none" stroke="#003049" stroke-width="2.16" stroke-linecap="square" stroke-linejoin="miter" stroke-miterlimit="2" d="M0 0L12.2188 14.7644" sodipodi:nodetypes="cc"/><path id="shape12" transform="translate(184.809428567041, 290.451181811287)" fill="none" stroke="#003049" stroke-width="2.16" stroke-linecap="square" stroke-linejoin="miter" stroke-miterlimit="2" d="M0 14.5098L11.9642 0" sodipodi:nodetypes="cc"/><path id="shape13" transform="translate(162.000005958987, 141.840005217425)" fill="none" stroke="#003049" stroke-width="7.92" stroke-linecap="square" stroke-linejoin="miter" stroke-miterlimit="2" d="M0 86.76L0.36 0" sodipodi:nodetypes="cc"/><path id="shape14" transform="translate(162.36000597223, 141.840005217425)" fill="none" stroke="#003049" stroke-width="7.92" stroke-linecap="square" stroke-linejoin="miter" stroke-miterlimit="2" d="M0 0L22.86 87.12" sodipodi:nodetypes="cc"/><path id="shape15" transform="translate(185.220006813109, 142.200005230667)" fill="none" stroke="#003049" stroke-width="7.92" stroke-linecap="square" stroke-linejoin="miter" stroke-miterlimit="2" d="M0 86.76L19.62 0" sodipodi:nodetypes="cc"/><path id="shape16" transform="translate(204.840007534809, 142.200005230667)" fill="none" stroke="#003049" stroke-width="7.92" stroke-linecap="square" stroke-linejoin="miter" stroke-miterlimit="2" d="M0 0L3.06 86.22" sodipodi:nodetypes="cc"/><path id="shape17" transform="translate(135.180000690859, 260.190001329743)" fill="none" stroke="#003049" stroke-width="2.16" stroke-linecap="square" stroke-linejoin="miter" stroke-miterlimit="2" d="M0.18 18.585L0 0" sodipodi:nodetypes="cc"/><path id="shape18" transform="translate(135.180000690859, 260.190001329743)" fill="none" stroke="#003049" stroke-width="2.16" stroke-linecap="square" stroke-linejoin="miter" stroke-miterlimit="2" d="M0 0L5.13 18.585" sodipodi:nodetypes="cc"/><path id="shape19" transform="translate(140.310000717077, 261.045001334112)" fill="none" stroke="#003049" stroke-width="2.16" stroke-linecap="square" stroke-linejoin="miter" stroke-miterlimit="2" d="M0 17.73L4.095 0" sodipodi:nodetypes="cc"/><path id="shape20" transform="translate(144.360000737775, 261.090001334342)" fill="none" stroke="#003049" stroke-width="2.16" stroke-linecap="square" stroke-linejoin="miter" stroke-miterlimit="2" d="M0 0L0.63 17.55" sodipodi:nodetypes="cc"/><path id="shape21" transform="translate(158.017148396311, 260.285999573465)" fill="none" stroke="#003049" stroke-width="2.16" stroke-linecap="square" stroke-linejoin="bevel" d="M0 0.254558C0.127279 6.06698 0.339411 11.3703 0.636396 16.1645L2.7365 18.2009L6.1094 16.2281L6.1094 0" sodipodi:nodetypes="ccccc"/><path id="shape22" transform="translate(176.918112179519, 260.158720356069)" fill="none" stroke="#003049" stroke-width="2.16" stroke-linecap="square" stroke-linejoin="bevel" d="M5.53665 3.24562L3.11834 0L0.318198 2.16375L0 15.7826L2.86378 18.2646L5.66393 16.3554L5.72756 8.40043L2.92742 8.59135" sodipodi:nodetypes="cccccccc"/><path id="shape23" transform="translate(195.500877919238, 260.349639182162)" fill="none" stroke="#003049" stroke-width="2.16" stroke-linecap="square" stroke-linejoin="bevel" d="M5.7912 3.11834L2.67286 0L0 2.7365L0 16.0372L2.67286 17.7555L5.85484 16.1645L5.60029 8.01859L3.24562 8.14587" sodipodi:nodetypes="cccccccc"/><path id="shape24" transform="translate(214.210922876352, 259.967801529976)" fill="none" stroke="#003049" stroke-width="2.16" stroke-linecap="square" stroke-linejoin="bevel" d="M0 0L0.254558 17.8191L5.34573 17.7555" sodipodi:nodetypes="ccc"/><path id="shape25" transform="translate(230.629941920351, 260.858756051744)" fill="none" stroke="#003049" stroke-width="2.16" stroke-linecap="square" stroke-linejoin="bevel" d="M5.47301 0L0 0L0.190919 8.40043L4.64569 8.20951L0.190919 8.27315L0.445477 17.6282L4.83661 17.31" sodipodi:nodetypes="ccccccc"/>
</svg>
